<svg xmlns="http://www.w3.org/2000/svg" viewBox="0 0 24 24">
  <rect width="24" height="24" rx="2" fill="#F7DF1E"/>
  <path d="M13 17.3c.5.8 1.2 1.3 2.2 1.3.9 0 1.5-.4 1.5-1 0-.7-.6-.9-1.6-1.4l-.5-.2c-1.5-.7-2.5-1.5-2.5-3.2 0-1.6 1.2-2.8 3.1-2.8 1.3 0 2.3.5 3 1.8l-1.6 1c-.4-.7-.8-1-1.4-1-.6 0-1 .4-1 .9 0 .6.4.8 1.3 1.2l.5.2c1.8.8 2.8 1.7 2.8 3.4 0 2-1.6 3.1-3.7 3.1-2 0-3.3-1-4-2.3zM5.8 10.2h2v6.4c0 1.3-.5 2-1.7 2-.5 0-.9-.1-1.2-.2v1.6c.4.2.9.3 1.5.3 2.2 0 3.5-1.2 3.5-3.7v-6.4h-2v6.2c0 .9-.3 1.3-.9 1.3-.5 0-.8-.2-1.1-.5z"/>
</svg>